<?xml version="1.0" encoding="iso-8859-1"?>
<!-- Generator: Adobe Illustrator 16.0.0, SVG Export Plug-In . SVG Version: 6.00 Build 0)  -->
<!DOCTYPE svg PUBLIC "-//W3C//DTD SVG 1.1//EN" "http://www.w3.org/Graphics/SVG/1.1/DTD/svg11.dtd">
<svg version="1.1" id="Capa_1" xmlns="http://www.w3.org/2000/svg" xmlns:xlink="http://www.w3.org/1999/xlink" x="0px" y="0px"
	 width="464.876px" height="464.876px" viewBox="0 0 464.876 464.876" style="enable-background:new 0 0 464.876 464.876;"
	 xml:space="preserve">
<g>
	<g id="icons_1_">
		<g>
			<path d="M118.731,94.465c26.09,0,47.233-21.145,47.233-47.228C165.964,21.151,144.82,0,118.731,0
				C92.646,0,71.5,21.151,71.5,47.237C71.499,73.32,92.646,94.465,118.731,94.465z"/>
			<path d="M419.378,266.324c23.906,0,43.281-19.381,43.281-43.283c0-23.907-19.375-43.282-43.281-43.282
				s-43.281,19.375-43.281,43.282C376.097,246.943,395.472,266.324,419.378,266.324z"/>
			<path d="M142.437,258.182L142.437,258.182c3.78,2.783,8.447,4.432,13.501,4.432c12.581,0,21.474-7.549,21.474-20.131
				c0-7.004-2.002-11.666-8.138-17.446c-0.011-0.011-0.021-0.021-0.032-0.03c-0.008-0.006-0.017-0.013-0.024-0.02
				c-0.343-0.285-51.112-47.345-67.493-69.87c-1.775-2.44-3.352-4.643-1.094-11.009c3.229-9.104,2.131-5.406,4.253-11.511
				c3.498-10.068,2.508-23.762-10.231-31.265c-12.739-7.503-39.799-16.27-48.716,9.878c-10.827,31.743-25.894,71.268-41.349,118.114
				c-1.3,3.939-3.893,12.99-3.893,25.957c0,12.97,0,139.75,0,183.008c0,32.058,49.723,32.058,49.723,0
				c0-37.853,0.716-137.672,0.716-145.639s1.169-12.797,2.998-18.258c4.926-14.699,15.122-44.746,23.265-66.256
				c2.766-7.305,7.06-5.432,8.986-3.52c23.803,23.618,55.773,53.355,56.013,53.534C142.407,258.16,142.422,258.171,142.437,258.182z
				"/>
			<path d="M169.24,225.006c0.012,0.009,0.021,0.018,0.033,0.026C169.273,225.034,163.162,219.28,169.24,225.006z"/>
			<path d="M460.36,428.795c-0.322-0.472-34.738-48.137-34.738-117.204c0-11.554-13.145-45.265-62.678-33.817
				c-9.193,2.125-84.92-15.072-121.257-34.453l0,0c-3.248-1.783-6.978-2.799-10.945-2.799c-12.581,0-22.78,10.199-22.78,22.78
				c0,6.707,2.899,12.736,7.513,16.906c1.381,1.376,3.279,2.739,5.797,4.083c33.678,17.982,64.283,27.186,101.135,33.814
				c2.838,0.51,8.852,0.726,4.812,7.043c-4.041,6.317-20.721,34.006-24.896,40.603c-4.734,7.477-7.244,1.468-8.863-1.431
				c-3.787-6.782-7.676-13.51-11.789-20.092c-10.682-17.106-29.668-39.211-51.956-25.828c-30.973,18.574-52.843,59.681-72.086,89.3
				c-2.579,3.971-3.601,7.877-3.642,11.552c-4.213,0.017-8.236,0.036-11.958,0.068c-29.374,0.181-29.106,45.736,0.266,45.555
				c44.045-0.279,152.35-0.807,168.559-0.807s30.262-4.862,37.783-20.289c10.918-22.39,29.783-57.47,35.822-65.695
				c3.953-5.387,5.775-5.158,6.783-3.6c12.803,49.339,31.613,77.453,32.73,79.096c4.264,6.255,11.178,9.622,18.215,9.622
				c4.266,0,8.578-1.238,12.371-3.822C464.606,452.536,467.204,438.842,460.36,428.795z M265.31,418.74
				c-6.738,0-46.874,0.232-53.331,0.232s-3.903-5.137-2.168-7.709c8.953-13.27,23.725-30.857,27.647-36.774
				c5.114-7.718,7.613-3.391,8.61-1.615c1.562,2.78,3.05,5.55,4.547,8.125c6.027,10.393,11.694,21.004,17.433,31.565
				C269.161,414.615,272.048,418.74,265.31,418.74z"/>
		</g>
	</g>
</g>
<g>
</g>
<g>
</g>
<g>
</g>
<g>
</g>
<g>
</g>
<g>
</g>
<g>
</g>
<g>
</g>
<g>
</g>
<g>
</g>
<g>
</g>
<g>
</g>
<g>
</g>
<g>
</g>
<g>
</g>
</svg>
